<svg width="16" height="16" viewBox="0 0 16 16" fill="none" xmlns="http://www.w3.org/2000/svg">
<rect width="7.45898" height="7.45898" transform="matrix(-1 0 0 1 13.4336 6.13525)" fill="white" fill-opacity="0.3" stroke="black" stroke-width="0.75" stroke-linejoin="round"/>
<rect width="7.45898" height="7.45898" transform="matrix(-1 0 0 1 10.0273 2.40576)" fill="white" fill-opacity="0.3" stroke="black" stroke-width="0.75" stroke-linejoin="round"/>
<path d="M10.0586 9.55908C10.0583 9.76596 9.89053 9.93408 9.68359 9.93408H5.89062V6.48291C5.89084 6.27598 6.05865 6.10791 6.26562 6.10791H10.0586V9.55908Z" fill="#E5C11F"/>
<path d="M10.0586 9.55908L10.4336 9.55958V9.55908H10.0586ZM5.89062 9.93408H5.51562C5.51562 10.1412 5.68352 10.3091 5.89062 10.3091V9.93408ZM5.89062 6.48291L5.51562 6.48253V6.48291H5.89062ZM10.0586 6.10791H10.4336C10.4336 5.9008 10.2657 5.73291 10.0586 5.73291V6.10791ZM10.0586 9.55908L9.68359 9.55858L9.68359 9.55908V9.93408V10.3091C10.0981 10.3091 10.433 9.97268 10.4336 9.55958L10.0586 9.55908ZM9.68359 9.93408V9.55908H5.89062V9.93408V10.3091H9.68359V9.93408ZM5.89062 9.93408H6.26562V6.48291H5.89062H5.51562V9.93408H5.89062ZM5.89062 6.48291L6.26562 6.48329L6.26562 6.48291V6.10791V5.73291C5.85116 5.73291 5.51605 6.06917 5.51563 6.48253L5.89062 6.48291ZM6.26562 6.10791V6.48291H10.0586V6.10791V5.73291H6.26562V6.10791ZM10.0586 6.10791H9.68359V9.55908H10.0586H10.4336V6.10791H10.0586Z" fill="black"/>
</svg>
