<svg width="16" height="16" viewBox="0 0 16 16" fill="none" xmlns="http://www.w3.org/2000/svg">
<rect width="16" height="16" fill="#39393C"/>
<path d="M13.5938 5.76025C13.8008 5.76025 13.9686 5.92826 13.9688 6.13525V13.5942C13.9688 13.8013 13.8009 13.9692 13.5938 13.9692H6.13477C5.92766 13.9692 5.75977 13.8013 5.75977 13.5942V10.2397H9.86523C10.0723 10.2397 10.2402 10.0719 10.2402 9.86475V5.76025H13.5938ZM9.86523 2.03076C10.0723 2.03076 10.2401 2.19877 10.2402 2.40576V5.76025H6.13477C5.92774 5.76025 5.7599 5.92826 5.75977 6.13525V10.2397H2.40625C2.19914 10.2397 2.03125 10.0719 2.03125 9.86475V2.40576C2.03138 2.19877 2.19922 2.03076 2.40625 2.03076H9.86523Z" fill="#E5C11F"/>
<path d="M13.9688 6.13525H14.3438V6.13502L13.9688 6.13525ZM10.2402 2.40576H10.6152V2.40552L10.2402 2.40576ZM5.75977 6.13525L5.38477 6.13502V6.13525H5.75977ZM2.03125 2.40576L1.65625 2.40552V2.40576H2.03125ZM13.5938 5.76025V6.13525V6.13549L13.9688 6.13525L14.3438 6.13502C14.3435 5.72134 14.0081 5.38525 13.5938 5.38525V5.76025ZM13.9688 6.13525H13.5938V13.5942H13.9688H14.3438V6.13525H13.9688ZM13.9688 13.5942H13.5938V13.9692V14.3442C14.008 14.3442 14.3438 14.0085 14.3438 13.5942H13.9688ZM13.5938 13.9692V13.5942H6.13477V13.9692V14.3442H13.5938V13.9692ZM6.13477 13.9692V13.5942H5.75977H5.38477C5.38477 14.0085 5.72055 14.3442 6.13477 14.3442V13.9692ZM5.75977 13.5942H6.13477V10.2397H5.75977H5.38477V13.5942H5.75977ZM5.75977 10.2397V10.6147H9.86523V10.2397V9.86475H5.75977V10.2397ZM9.86523 10.2397V10.6147C10.2794 10.6147 10.6152 10.279 10.6152 9.86475H10.2402H9.86523V10.2397ZM10.2402 9.86475H10.6152V5.76025H10.2402H9.86523V9.86475H10.2402ZM10.2402 5.76025V6.13525H13.5938V5.76025V5.38525H10.2402V5.76025ZM9.86523 2.03076V2.40576V2.406L10.2402 2.40576L10.6152 2.40552C10.615 1.99185 10.2796 1.65576 9.86523 1.65576V2.03076ZM10.2402 2.40576H9.86523V5.76025H10.2402H10.6152V2.40576H10.2402ZM10.2402 5.76025V5.38525H6.13477V5.76025V6.13525H10.2402V5.76025ZM6.13477 5.76025V5.38525C5.7204 5.38525 5.38503 5.72134 5.38477 6.13502L5.75977 6.13525L6.13477 6.13549V6.13525V5.76025ZM5.75977 6.13525H5.38477V10.2397H5.75977H6.13477V6.13525H5.75977ZM5.75977 10.2397V9.86475H2.40625V10.2397V10.6147H5.75977V10.2397ZM2.40625 10.2397V9.86475H2.03125H1.65625C1.65625 10.279 1.99204 10.6147 2.40625 10.6147V10.2397ZM2.03125 9.86475H2.40625V2.40576H2.03125H1.65625V9.86475H2.03125ZM2.03125 2.40576L2.40625 2.406L2.40625 2.40576V2.03076V1.65576C1.99188 1.65576 1.65651 1.99185 1.65625 2.40552L2.03125 2.40576ZM2.40625 2.03076V2.40576H9.86523V2.03076V1.65576H2.40625V2.03076Z" fill="black"/>
</svg>
