<svg width="16" height="16" viewBox="0 0 16 16" fill="none" xmlns="http://www.w3.org/2000/svg">
<path d="M2.24902 2.15576C2.11103 2.15576 1.99916 2.2678 1.99902 2.40576V9.86475C1.99902 10.0028 2.11095 10.1147 2.24902 10.1147H5.72852V13.5942C5.72852 13.7323 5.84044 13.8442 5.97852 13.8442H13.4375C13.5756 13.8442 13.6875 13.7323 13.6875 13.5942V6.13525C13.6874 5.99729 13.5755 5.88525 13.4375 5.88525H9.95801V2.40576C9.95788 2.2678 9.846 2.15576 9.70801 2.15576H2.24902Z" fill="#E5C11F"/>
<path d="M1.99902 2.40576H1.62402V2.4054L1.99902 2.40576ZM5.72852 10.1147V9.73975C5.93562 9.73975 6.10352 9.90764 6.10352 10.1147H5.72852ZM13.6875 6.13525L14.0625 6.1349V6.13525H13.6875ZM9.95801 5.88525V6.26025C9.7509 6.26025 9.58301 6.09236 9.58301 5.88525H9.95801ZM9.95801 2.40576L10.333 2.4054V2.40576H9.95801ZM2.24902 2.15576V2.53076C2.3185 2.53076 2.37396 2.47463 2.37402 2.40612L1.99902 2.40576L1.62402 2.4054C1.62435 2.06097 1.90357 1.78076 2.24902 1.78076V2.15576ZM1.99902 2.40576H2.37402V9.86475H1.99902H1.62402V2.40576H1.99902ZM1.99902 9.86475H2.37402C2.37402 9.79571 2.31806 9.73975 2.24902 9.73975V10.1147V10.4897C1.90385 10.4897 1.62402 10.2099 1.62402 9.86475H1.99902ZM2.24902 10.1147V9.73975H5.72852V10.1147V10.4897H2.24902V10.1147ZM5.72852 10.1147H6.10352V13.5942H5.72852H5.35352V10.1147H5.72852ZM5.72852 13.5942H6.10352C6.10352 13.5252 6.04755 13.4692 5.97852 13.4692V13.8442V14.2192C5.63334 14.2192 5.35352 13.9394 5.35352 13.5942H5.72852ZM5.97852 13.8442V13.4692H13.4375V13.8442V14.2192H5.97852V13.8442ZM13.4375 13.8442V13.4692C13.3685 13.4692 13.3125 13.5252 13.3125 13.5942H13.6875H14.0625C14.0625 13.9394 13.7827 14.2192 13.4375 14.2192V13.8442ZM13.6875 13.5942H13.3125V6.13525H13.6875H14.0625V13.5942H13.6875ZM13.6875 6.13525L13.3125 6.13561C13.3126 6.20412 13.368 6.26025 13.4375 6.26025V5.88525V5.51025C13.783 5.51025 14.0622 5.79047 14.0625 6.1349L13.6875 6.13525ZM13.4375 5.88525V6.26025H9.95801V5.88525V5.51025H13.4375V5.88525ZM9.95801 5.88525H9.58301V2.40576H9.95801H10.333V5.88525H9.95801ZM9.95801 2.40576L9.58301 2.40612C9.58307 2.47463 9.63853 2.53076 9.70801 2.53076V2.15576V1.78076C10.0535 1.78076 10.3327 2.06097 10.333 2.4054L9.95801 2.40576ZM9.70801 2.15576V2.53076H2.24902V2.15576V1.78076H9.70801V2.15576Z" fill="black"/>
</svg>
